<svg width="24" height="23" viewBox="0 0 24 23" fill="none" xmlns="http://www.w3.org/2000/svg">
<path d="M11.0411 0.0360317C5.39889 0.463958 0.851984 4.84197 0.46811 10.2071C0.325369 12.2049 0.746661 14.0979 1.59525 15.7578L0.0408125 21.37C-0.193393 22.2153 0.618241 22.9865 1.50794 22.764L7.78944 21.1931C9.48015 21.8208 11.3616 22.0859 13.3323 21.8717C18.7837 21.2796 23.0996 17.0069 23.5047 11.8077C24.0309 5.06932 18.1416 -0.502497 11.0411 0.0360317Z" fill="white"/>
<path d="M2.12909 15.7036L2.07711 15.8913L0.522671 21.5035L0.52266 21.5035C0.404078 21.9315 0.818985 22.4209 1.38663 22.2789L1.38664 22.2789L7.66814 20.7081L7.81832 20.6705L7.96345 20.7244C9.58321 21.3257 11.3867 21.5802 13.2783 21.3746L13.2783 21.3746C18.5085 20.8066 22.6212 16.7109 23.0063 11.7689L23.0063 11.7688C23.5062 5.36574 17.904 0.0169564 11.0789 0.5346C5.66485 0.945222 1.33172 5.14336 0.966838 10.2427L2.12909 15.7036ZM2.12909 15.7036L2.04045 15.5302M2.12909 15.7036L2.04045 15.5302M2.04045 15.5302C1.23197 13.9488 0.830824 12.1466 0.966835 10.2428L2.04045 15.5302Z" stroke="#999999" stroke-opacity="0.1"/>
<path d="M3.46938 15.8903C3.52573 15.6875 3.50356 15.4725 3.40701 15.2837L3.25781 14.9914C2.52332 13.5545 2.19626 11.9411 2.31221 10.3264C2.63464 5.81717 6.45076 2.14536 11.1884 1.78634C11.455 1.76571 11.7243 1.75562 11.9895 1.75562C14.6766 1.75562 17.2685 2.8296 19.0992 4.70281C20.9553 6.60148 21.8653 9.07861 21.663 11.6786C21.3258 16.0035 17.6543 19.6354 13.1235 20.1278C12.7461 20.1687 12.3646 20.1893 11.9895 20.1893C10.7773 20.1893 9.59105 19.9769 8.46252 19.5581L8.18212 19.4541C8.00011 19.3865 7.80009 19.3756 7.6107 19.423L2.87578 20.6067C2.53348 20.6923 2.22167 20.3956 2.31128 20.0703L3.46938 15.8903Z" fill="url(#paint0_linear)"/>
<path fill-rule="evenodd" clip-rule="evenodd" d="M9.03809 6.19518C8.81682 5.72996 8.584 5.7203 8.37289 5.71196C8.20059 5.70538 8.0038 5.70582 7.80701 5.70582C7.61023 5.70582 7.2901 5.77604 7.01894 6.05562C6.74778 6.33519 5.98419 7.01109 5.98419 8.38615C5.98419 9.76121 7.04296 11.0897 7.19078 11.2758C7.3386 11.4619 9.23534 14.3736 12.2389 15.4941C14.7348 16.425 15.2429 16.2397 15.7852 16.1932C16.3271 16.1467 17.5337 15.5178 17.7799 14.8651C18.0261 14.2125 18.0261 13.6533 17.9526 13.537C17.8787 13.4203 17.6815 13.3509 17.3863 13.2105C17.25 13.146 16.4957 12.794 15.6693 12.4148C15.2877 12.2397 14.8294 12.3331 14.5583 12.6426C14.4465 12.7698 14.2312 13.0147 13.9906 13.2873C13.7171 13.5972 13.2575 13.6898 12.875 13.5124C12.2883 13.2403 11.424 12.7887 10.7496 12.2199C10.2664 11.8126 9.70883 11.0937 9.34528 10.5912C9.10091 10.2532 9.13186 9.80115 9.42335 9.49875C9.55223 9.36489 9.6825 9.22971 9.77673 9.12525C10.0017 8.87552 10.0617 8.52835 9.93102 8.22376C9.66309 7.60228 9.21686 6.57088 9.03809 6.19518Z" fill="white"/>
<defs>
<linearGradient id="paint0_linear" x1="11.9899" y1="1.75562" x2="11.9899" y2="20.6212" gradientUnits="userSpaceOnUse">
<stop stop-color="#00D772"/>
<stop offset="0.996" stop-color="#00B26E"/>
<stop offset="1" stop-color="#00B26E"/>
</linearGradient>
</defs>
</svg>
