<svg xmlns="http://www.w3.org/2000/svg" viewBox="0 0 382 290">
  <style>
    @keyframes dipper{0%{opacity:0}30%,to{opacity:1}}
  </style>
  <g id="website_dev">
    <path id="ground-area" opacity=".6" d="M381.53 171.11c-9.582-88.164-176.844-63.517-259.277-40.174-47.6757 13.392-138.376 51.9-119.77566 98.804C21.0777 276.645 129.063 289.457 180.731 290c70.926-2.895 210.381-30.727 200.799-118.89z" fill="#192EC9" style="animation:uplift 5s ease-in infinite alternate"/>
    <g id="building_websites">
      <g id="window">
        <path id="Vector" d="M281.048 146.816H125.989c-1.323-.002-2.591-.528-3.526-1.463-.935-.935-1.462-2.203-1.463-3.526V48.655c.001-.969.386-1.898 1.072-2.5832A3.65833 3.65833 0 01124.655 45h157.664c.986.0011 1.931.3932 2.628 1.0903a3.7217 3.7217 0 011.09 2.6279v93.1088c-.001 1.323-.527 2.591-1.463 3.526-.935.935-2.203 1.461-3.526 1.463z" fill="#F2F2F2"/>
        <path id="Vector_2" d="M130.827 141.827h145.384c1.283 0 2.513-.51 3.421-1.417.907-.907 1.416-2.138 1.416-3.421V57.9089c0-1.283-.509-2.5135-1.416-3.4207-.908-.9073-2.138-1.417-3.421-1.417H130.827c-1.283 0-2.514.5097-3.421 1.417-.907.9072-1.417 2.1377-1.417 3.4207v79.0801c0 1.283.51 2.514 1.417 3.421s2.138 1.417 3.421 1.417z" fill="#fff"/>
      </g>
      <g id="top_bar">
        <path id="Vector_3" d="M285.795 51.1593H120.758v-2.5399c.001-1.3271.53-2.5992 1.468-3.5373.939-.9381 2.212-1.4655 3.539-1.4666h155.023c1.328.0011 2.6.5285 3.539 1.4666.938.9381 1.467 2.2102 1.468 3.5373v2.5399z" fill="#6C63FF"/>
        <path id="Vector_4" d="M129.857 48.6901c.715 0 1.295-.5799 1.295-1.2951 0-.7153-.58-1.2951-1.295-1.2951s-1.295.5798-1.295 1.2951c0 .7152.58 1.2951 1.295 1.2951z" fill="#fff"/>
        <path id="Vector_5" d="M134.773 48.6901c.715 0 1.295-.5799 1.295-1.2951 0-.7153-.58-1.2951-1.295-1.2951s-1.295.5798-1.295 1.2951c0 .7152.58 1.2951 1.295 1.2951z" fill="#fff"/>
        <path id="Vector_6" d="M139.689 48.6901c.715 0 1.295-.5799 1.295-1.2951 0-.7153-.58-1.2951-1.295-1.2951s-1.295.5798-1.295 1.2951c0 .7152.58 1.2951 1.295 1.2951z" fill="#fff"/>
      </g>
      <g id="icons" fill="#AAA">
        <g id="doc_icon">
          <path id="Vector_7" d="M222.714 119.746h-13.001c-.762-.001-1.492-.304-2.03-.842-.539-.539-.842-1.269-.843-2.03v-13.002c.001-.761.304-1.491.843-2.03.538-.538 1.268-.841 2.03-.842h13.001c.762.001 1.492.304 2.03.842.539.539.842 1.269.842 2.03v13.002c0 .761-.303 1.491-.842 2.03-.538.538-1.268.841-2.03.842zm-13.001-18.141c-.602 0-1.178.24-1.603.665-.425.425-.664 1.001-.665 1.602v13.002c.001.601.24 1.177.665 1.602.425.426 1.001.665 1.603.665h13.001c.601 0 1.178-.239 1.603-.665.425-.425.664-1.001.665-1.602v-13.002c-.001-.601-.24-1.177-.665-1.602-.425-.425-1.002-.665-1.603-.665h-13.001z"/>
          <path id="Vector_8" d="M220.144 116.118h-7.861c-.241-.001-.471-.096-.641-.266-.17-.17-.266-.401-.266-.641v-9.676c0-.24.096-.471.266-.641.17-.17.4-.266.641-.266h5.696c.207 0 .407.071.568.2l2.165 1.74c.106.085.192.192.25.315.059.122.089.256.089.392v7.936c0 .24-.096.471-.266.641-.17.17-.4.265-.641.266zm-7.861-10.885c-.08 0-.157.032-.214.089-.057.056-.088.133-.089.213v9.676c.001.08.032.157.089.213.057.057.134.089.214.089h7.861c.08 0 .157-.032.214-.089.056-.056.088-.133.088-.213v-7.936c.001-.045-.01-.09-.029-.131-.02-.04-.048-.076-.084-.105l-2.165-1.739c-.053-.044-.12-.067-.189-.067h-5.696z"/>
          <path id="Vector_9" d="M218.632 108.861h-4.837c-.081 0-.158-.032-.214-.088-.057-.057-.089-.134-.089-.214 0-.08.032-.157.089-.214.056-.057.133-.088.214-.088h4.837c.08 0 .157.031.214.088.057.057.089.134.089.214 0 .08-.032.157-.089.214-.057.056-.134.088-.214.088z"/>
          <path id="Vector_10" d="M218.632 110.675h-4.837c-.081 0-.158-.031-.214-.088-.057-.057-.089-.134-.089-.214 0-.08.032-.157.089-.214.056-.056.133-.088.214-.088h4.837c.08 0 .157.032.214.088.057.057.089.134.089.214 0 .08-.032.157-.089.214-.057.057-.134.088-.214.088z"/>
          <path id="Vector_11" d="M218.632 112.489h-4.837c-.081 0-.158-.031-.214-.088-.057-.057-.089-.134-.089-.214 0-.08.032-.157.089-.214.056-.056.133-.088.214-.088h4.837c.08 0 .157.032.214.088.057.057.089.134.089.214 0 .08-.032.157-.089.214-.057.057-.134.088-.214.088z"/>
        </g>
        <g id="message_icon">
          <path id="Vector_12" d="M253.554 119.746h-13.001c-.762-.001-1.492-.304-2.03-.842-.539-.539-.842-1.269-.842-2.03v-13.002c0-.761.303-1.491.842-2.03.538-.538 1.268-.841 2.03-.842h13.001c.762.001 1.492.304 2.03.842.539.539.842 1.269.843 2.03v13.002c-.001.761-.304 1.491-.843 2.03-.538.538-1.268.841-2.03.842zm-13.001-18.141c-.601 0-1.178.24-1.603.665-.425.425-.664 1.001-.665 1.602v13.002c.001.601.24 1.177.665 1.602.425.426 1.002.665 1.603.665h13.001c.601 0 1.178-.239 1.603-.665.425-.425.664-1.001.665-1.602v-13.002c-.001-.601-.24-1.177-.665-1.602-.425-.425-1.002-.665-1.603-.665h-13.001z"/>
          <path id="Vector_13" d="M251.286 113.699h-8.465a.9083.9083 0 01-.642-.266c-.17-.17-.265-.401-.266-.641v-4.838c.001-.24.096-.471.266-.641.17-.17.401-.266.642-.266h8.465c.241 0 .472.096.642.266.17.17.265.401.266.641v4.838c-.001.24-.096.471-.266.641-.17.17-.401.266-.642.266zm-8.465-6.047c-.081 0-.158.032-.214.088-.057.057-.089.134-.089.214v4.838c0 .08.032.157.089.214.056.056.133.088.214.088h8.465c.081 0 .157-.032.214-.088.057-.057.089-.134.089-.214v-4.838c0-.08-.032-.157-.089-.214-.057-.056-.133-.088-.214-.088h-8.465z"/>
          <path id="Vector_14" d="M247.054 111.171c-.17 0-.337-.047-.481-.137l-4.517-2.823a.3046.3046 0 01-.134-.189c-.018-.078-.005-.16.038-.228.042-.068.11-.116.188-.134.078-.018.16-.005.228.038l4.518 2.823c.048.03.103.046.16.046.056 0 .112-.016.16-.046l4.517-2.823c.068-.043.15-.056.228-.038.078.018.146.066.188.134.043.068.056.15.039.228-.018.078-.067.146-.134.189l-4.517 2.823c-.145.09-.311.137-.481.137z"/>
        </g>
        <g id="image_icon">
          <path id="Vector_15" d="M191.874 119.746h-13.002c-.761-.001-1.491-.304-2.03-.842-.538-.539-.841-1.269-.842-2.03v-13.002c.001-.761.304-1.491.842-2.03.539-.538 1.269-.841 2.03-.842h13.002c.761.001 1.491.304 2.03.842.538.539.841 1.269.842 2.03v13.002c-.001.761-.304 1.491-.842 2.03-.539.538-1.269.841-2.03.842zm-13.002-18.141c-.601 0-1.177.24-1.602.665-.425.425-.665 1.001-.665 1.602v13.002c0 .601.24 1.177.665 1.602.425.426 1.001.665 1.602.665h13.002c.601 0 1.177-.239 1.602-.665.426-.425.665-1.001.665-1.602v-13.002c0-.601-.239-1.177-.665-1.602-.425-.425-1.001-.665-1.602-.665h-13.002z"/>
          <path id="Vector_16" d="M189.606 113.699h-8.466c-.241 0-.471-.096-.641-.266-.17-.17-.266-.401-.266-.641v-4.838c0-.24.096-.471.266-.641.17-.17.4-.266.641-.266h8.466c.24 0 .471.096.641.266.17.17.266.401.266.641v4.838c0 .24-.096.471-.266.641-.17.17-.401.266-.641.266zm-8.466-6.047c-.08 0-.157.032-.214.088-.056.057-.088.134-.088.214v4.838c0 .08.032.157.088.214.057.056.134.088.214.088h8.466c.08 0 .157-.032.214-.088.056-.057.088-.134.088-.214v-4.838c0-.08-.032-.157-.088-.214-.057-.056-.134-.088-.214-.088h-8.466z"/>
          <path id="Vector_17" d="M188.264 113.699h-6.085c-.106 0-.21-.028-.302-.081a.6007.6007 0 01-.221-.221.60844.60844 0 01-.081-.303c0-.106.028-.21.081-.302l1.833-3.175a.6007.6007 0 01.221-.221c.092-.053.196-.081.302-.081.106 0 .211.028.303.081.092.053.168.129.221.221l1.184 2.05.686-1.187c.053-.092.129-.169.221-.222.092-.053.196-.081.302-.081.106 0 .211.028.303.081.092.053.168.13.221.222l1.335 2.312c.053.092.081.196.081.302 0 .106-.028.211-.081.303-.053.092-.13.168-.222.221-.091.053-.196.081-.302.081zm0-.605l-1.335-2.312-.947 1.641c-.027.046-.065.085-.111.111-.046.027-.098.041-.151.041-.053 0-.105-.014-.151-.041a.29571.29571 0 01-.111-.111l-1.446-2.504-1.833 3.175h6.085z"/>
          <path id="Vector_18" d="M188.699 109.466c.334 0 .605-.271.605-.605 0-.334-.271-.605-.605-.605-.334 0-.605.271-.605.605 0 .334.271.605.605.605z"/>
        </g>
      </g>
      <g id="guy">
        <path id="Vector_19" d="M296.459 195.972l-3.707-.001-1.764-14.297h5.471v14.298z" fill="#FFB8B8"/>
        <path id="Vector_20" d="M297.404 199.565h-11.952v-.152c0-.611.12-1.216.354-1.78.233-.564.576-1.077 1.008-1.509.432-.432.945-.775 1.509-1.009.565-.233 1.17-.354 1.781-.354l7.3.001v4.803z" fill="#2F2E41"/>
        <path id="Vector_21" d="M311.576 195.972l-3.707-.001-1.763-14.297h5.471l-.001 14.298z" fill="#FFB8B8"/>
        <path id="Vector_22" d="M312.522 199.565h-11.953v-.152c0-.611.121-1.216.354-1.78.234-.564.577-1.077 1.009-1.509.432-.432.945-.775 1.509-1.009.565-.233 1.17-.354 1.78-.354h.001l7.3.001v4.803z" fill="#2F2E41"/>
        <path id="Vector_23" d="M310.465 188.774l-3.433-1.045c-.256-.077-.483-.229-.653-.435-.171-.206-.276-.458-.304-.724l-3.201-30.334c-.002-.037-.019-.071-.046-.096-.026-.025-.062-.039-.099-.039-.036-.004-.073.007-.102.03-.029.024-.047.057-.052.094l-5.361 29.388c-.033.179-.1.349-.2.5-.099.152-.227.283-.378.384-.15.101-.319.172-.497.207-.177.035-.36.034-.538-.002l-4.388-.904c-.321-.067-.608-.249-.807-.51-.199-.262-.297-.587-.276-.915l3.261-48.169 22.114-2.386-3.286 53.737c-.021.345-.173.67-.425.907s-.585.37-.931.371c-.135 0-.269-.02-.398-.059z" fill="#2F2E41"/>
        <path id="Vector_24" d="M310.444 95.2565c4.101 0 7.426-3.3248 7.426-7.4262 0-4.1013-3.325-7.4261-7.426-7.4261s-7.426 3.3248-7.426 7.4261c0 4.1014 3.325 7.4262 7.426 7.4262z" fill="#FFB8B8"/>
        <path id="Vector_25" d="M293.357 137.487l4.795-30.19c.255-1.606.849-3.138 1.742-4.496.894-1.358 2.066-2.51 3.439-3.3793 1.373-.8696 2.916-1.4367 4.525-1.6637 1.61-.2271 3.249-.1087 4.809.3471 2.728.7889 5.063 2.5659 6.551 4.9849 1.487 2.419 2.019 5.305 1.492 8.096l-5.016 26.961-22.337-.66z" fill="#6C63FF"/>
        <path id="Vector_26" d="M312.494 142.889c.371-.245.684-.568.916-.947.233-.379.379-.804.43-1.246.05-.441.003-.889-.138-1.31-.142-.422-.373-.807-.68-1.129l4.958-9.6-5.583.595-3.852 9.026c-.507.55-.795 1.267-.808 2.015-.014.749.248 1.476.734 2.044.487.569 1.166.939 1.907 1.04.741.102 1.494-.072 2.116-.488z" fill="#FFB8B8"/>
        <path id="Vector_27" d="M313.556 136.563c-.275-.038-.53-.16-.734-.348l-1.897-1.752c-.205-.19-.346-.439-.405-.712-.059-.274-.033-.558.075-.816l3.791-8.986-.538-17.754c.078-.571.267-1.121.556-1.618.29-.498.676-.934 1.134-1.282.458-.349.981-.604 1.538-.75.557-.147 1.137-.182 1.708-.105.571.078 1.12.268 1.618.558.497.291.932.676 1.281 1.135.348.459.602.982.748 1.539.146.557.181 1.137.103 1.708l.919 11.16c.28 3.388-.68 6.761-2.702 9.493l-5.912 7.992c-.113.154-.258.282-.425.376-.166.094-.35.152-.541.17-.105.01-.212.007-.317-.008z" fill="#6C63FF"/>
        <path id="guys_hand" d="M267.679 83.7843c.081.4371.257.8511.515 1.2129.258.3618.593.6625.98.8811.387.2186.817.3496 1.26.3839a3.043 3.043 0 001.305-.1854l6.907 8.3082 1.628-5.3735-6.809-7.0657a3.05517 3.05517 0 00-1.541-1.5303c-.684-.3042-1.455-.3471-2.169-.1205-.713.2267-1.318.707-1.701 1.3501-.382.6431-.516 1.4043-.375 2.1392z" fill="#FFB8B8"/>
        <path id="guys_arm_0" d="M273.09 87.2281c.143-.2374.354-.4258.606-.5399l2.354-1.0633c.255-.1145.539-.148.814-.0958.274.0522.527.1875.722.3876l6.796 6.9941 16.559 6.4271c.496.2936.928.6821 1.274 1.1431.345.461.596.986.739 1.544.142.558.173 1.139.091 1.709-.082.57-.276 1.118-.57 1.613-.294.496-.683.928-1.145 1.273-.461.345-.986.595-1.544.737-.559.142-1.139.172-1.709.089-.571-.083-1.119-.277-1.614-.572l-10.635-3.504c-3.229-1.064-5.961-3.263-7.688-6.1902l-5.055-8.5598c-.097-.1647-.158-.3479-.18-.5378-.022-.1899-.003-.3822.054-.5645.032-.1013.076-.1985.131-.2896z" fill="#6C63FF"/>
        <path id="Vector_28" opacity=".1" d="M316.467 113.581l-.302 9.675-5.57 9.679 4.651-10.786 1.221-8.568z" fill="#000"/>
        <path id="guys_head" d="M309.812 89.281c-.458.1047-.939.0394-1.353-.1838-.414-.2231-.733-.589-.898-1.0295-.167-.5093-.469-.9635-.875-1.314a2.94844 2.94844 0 00-1.426-.6756c-1.386-.1805-2.982.616-4.074-.3166a2.01283 2.01283 0 01-.528-.7792c-.111-.2979-.15-.618-.114-.934.088-1.0159.73-1.8384 1.45-2.5158 1.515-1.4197 3.424-2.3483 5.476-2.6641 1.065-.1329 2.139-.1817 3.212-.1461 1.116-.0358 2.233.06 3.326.2856 1.255.3413 2.403.9933 3.338 1.8957.936.9023 1.629 2.026 2.015 3.2671.364 1.2472.452 2.5588.257 3.8433s-.668 2.5109-1.387 3.5937c-.858 1.3065-2.024 2.3831-3.394 3.136a1.4337 1.4337 0 01-1.08.1587c-.924-.269-.884-1.3855-.548-2.1596.359-.8285.955-1.6543.514-2.5787-.217-.4275-.588-.7572-1.038-.9234-.928-.3668-1.907-.1656-2.848.0351l-.025.0052z" fill="#2F2E41" style="animation:think 2s ease-in infinite alternate;transform-box:fill-box;transform-origin:center"/>
        <path id="Vector_29" d="M328.643 200h-58.052c-.08 0-.157-.032-.214-.089-.057-.056-.088-.133-.088-.213 0-.081.031-.157.088-.214.057-.057.134-.089.214-.089h58.052c.08 0 .157.032.214.089.057.057.089.133.089.214 0 .08-.032.157-.089.213-.057.057-.134.089-.214.089z" fill="#CCC"/>
      </g>
      <g id="girl">
        <path id="Vector_30" d="M116.588 105.78c3.869 0 7.006-3.136 7.006-7.0057 0-3.8694-3.137-7.0061-7.006-7.0061-3.87 0-7.006 3.1367-7.006 7.0061 0 3.8697 3.136 7.0057 7.006 7.0057z" fill="#A0616A"/>
        <path id="Vector_31" d="M133.788 93.9516c.069.055.136.1132.2.1748.322.3032.576.6709.746 1.0792.17.4083.252.8478.24 1.2898-.012.442-.117.8765-.309 1.275-.191.3986-.465.7521-.803 1.0375-.078.0661-.16.128-.246.1855l.474 16.0086c.014.524-.142 1.038-.444 1.467-.302.428-.734.748-1.232.911l-.029.006-12.998 1.385c-.353.037-.711.004-1.051-.097-.341-.101-.658-.269-.933-.493-.276-.225-.504-.502-.672-.815-.168-.313-.272-.657-.306-1.01-.035-.354.001-.711.106-1.051.104-.34.275-.655.502-.929.227-.273.506-.499.82-.664.315-.165.659-.266 1.013-.297l9.266-.816 1.602-13.8633a2.87417 2.87417 0 01-.293-.2993c-.503-.5946-.766-1.3547-.74-2.1327.027-.778.342-1.5183.883-2.0772.542-.559 1.272-.8966 2.049-.9474a3.1391 3.1391 0 012.155.6725z" fill="#A0616A"/>
        <path id="Vector_32" d="M128.127 196.281h3.497l1.663-13.489h-5.161l.001 13.489z" fill="#A0616A"/>
        <path id="Vector_33" d="M127.235 195.14l6.887-.001c.576 0 1.147.114 1.68.334.532.221 1.016.544 1.424.952.407.407.73.891.951 1.424.221.532.334 1.103.334 1.679v.143h-11.276v-4.531z" fill="#2F2E41"/>
        <path id="Vector_34" d="M93.3672 191.446l3.0048 1.789 8.331-10.739-4.435-2.64-6.9008 11.59z" fill="#A0616A"/>
        <path id="Vector_35" d="M93.1848 190.009l5.9176 3.523h.0002c.4953.295.9274.685 1.2724 1.147.345.462.595.987.737 1.546.141.558.171 1.139.089 1.71-.083.57-.278 1.119-.573 1.614l-.073.122-9.6885-5.768 2.3183-3.894z" fill="#2F2E41"/>
        <path id="Vector_36" d="M132.449 191.517h-3.916c-.317.001-.623-.117-.859-.329-.236-.212-.384-.504-.417-.819l-3.948-37.11c-.01-.094-.051-.181-.115-.249-.065-.069-.15-.114-.243-.128a.43159.43159 0 00-.271.045c-.082.045-.148.115-.187.201l-7.122 15.77-12.609 20.561c-.163.264-.416.46-.712.552-.296.093-.615.076-.899-.048l-5.0377-2.216a1.29805 1.29805 0 01-.4373-.317c-.1217-.135-.2133-.295-.2686-.468a1.28877 1.28877 0 01-.0523-.538c.0209-.18.0799-.355.1732-.511l11.5917-19.409 3.555-16.353c-1.118-7.091 3.675-17.635 3.723-17.741l.024-.051 13.203-5.161.067.081c5.206 17.088 8.379 35.476 6.037 63.062-.029.32-.176.618-.413.835-.237.218-.546.339-.867.341z" fill="#2F2E41"/>
        <path id="Vector_37" d="M113.89 134.087l-.061-.13c-.03-.061-2.965-6.253-5.229-12.871-.434-1.28-.599-2.636-.482-3.983.116-1.346.511-2.654 1.159-3.84a9.8559 9.8559 0 012.639-3.08 9.86386 9.86386 0 013.654-1.759c2.303-.552 4.728-.259 6.833.828 2.105 1.086 3.75 2.892 4.635 5.089 1.795 4.489 1.223 9.28.684 13.049l-.01.075-.069.033-13.753 6.589z" fill="#3F3D56"/>
        <path id="Vector_38" d="M125.082 94.8167h-11.124v-4.8493c2.441-.9701 4.831-1.7951 6.275 0 1.286 0 2.52.5109 3.429 1.4203.909.9094 1.42 2.1429 1.42 3.429z" fill="#2F2E41"/>
        <path id="Vector_39" d="M113.342 89.1116c-6.651 0-8.513 8.3363-8.513 13.0394 0 2.623 1.187 3.561 3.05 3.878l.659-3.511 1.541 3.662c.524.003 1.074-.007 1.644-.018l.523-1.076 1.166 1.057c4.668.007 8.442.687 8.442-3.992 0-4.7031-1.633-13.0394-8.512-13.0394z" fill="#2F2E41"/>
        <path id="Vector_40" d="M144.355 200H86.3024a.30152.30152 0 01-.2138-.089c-.0567-.056-.0886-.133-.0886-.213 0-.081.0319-.157.0886-.214a.30152.30152 0 01.2138-.089h58.0526c.08 0 .157.032.213.089.057.057.089.133.089.214 0 .08-.032.157-.089.213-.056.057-.133.089-.213.089z" fill="#CCC"/>
        <path id="Vector_41" d="M142.903 98.4415c.042.0775.082.1571.117.239.179.4043.271.8419.269 1.284-.002.4425-.097.8785-.28 1.2815-.182.403-.448.763-.779 1.056-.331.293-.721.512-1.143.644-.098.031-.197.056-.298.076l-5.775 14.938c-.191.488-.534.901-.979 1.179-.444.278-.967.405-1.489.362l-.029-.005L120 115.728c-.34-.103-.657-.272-.931-.497-.275-.226-.502-.503-.669-.817-.167-.314-.27-.658-.303-1.012-.033-.353.004-.71.11-1.05.105-.339.277-.654.505-.927.228-.272.508-.497.823-.661.316-.164.66-.264 1.014-.294.355-.029.711.011 1.049.12l8.857 2.843 6.856-12.155c-.061-.126-.112-.257-.155-.39-.232-.743-.18-1.5457.147-2.2524.326-.7067.903-1.2669 1.62-1.5718.716-.3049 1.52-.3327 2.255-.0781.736.2545 1.351.7734 1.725 1.4558z" fill="#A0616A"/>
      </g>
      <g id="girls-folder">
        <path id="Vector_42" d="M148.874 98.746h-13.002c-.761-.0008-1.491-.3037-2.03-.8422-.538-.5385-.841-1.2686-.842-2.0301V82.8724c.001-.7616.304-1.4917.842-2.0301.539-.5385 1.269-.8414 2.03-.8423h13.002c.761.0009 1.491.3038 2.03.8423.538.5384.841 1.2685.842 2.0301v13.0013c-.001.7615-.304 1.4916-.842 2.0301-.539.5385-1.269.8414-2.03.8422z" fill="#fff"/>
        <path id="Vector_43" d="M148.874 98.746h-13.002c-.761-.0008-1.491-.3037-2.03-.8422-.538-.5385-.841-1.2686-.842-2.0301V82.8724c.001-.7616.304-1.4917.842-2.0301.539-.5385 1.269-.8414 2.03-.8423h13.002c.761.0009 1.491.3038 2.03.8423.538.5384.841 1.2685.842 2.0301v13.0013c-.001.7615-.304 1.4916-.842 2.0301-.539.5385-1.269.8414-2.03.8422zm-13.002-18.1413c-.601.0007-1.177.2398-1.602.6649-.425.4252-.665 1.0016-.665 1.6028v13.0013c0 .6012.24 1.1776.665 1.6027.425.4251 1.001.6643 1.602.6649h13.002c.601-.0006 1.177-.2398 1.602-.6649.426-.4251.665-1.0015.665-1.6027V82.8724c0-.6012-.239-1.1776-.665-1.6028a2.26884 2.26884 0 00-1.602-.6649h-13.002z" fill="#3F3D56" fill-opacity=".5"/>
        <path id="Vector_44" d="M146.606 93.4548h-8.466a.90682.90682 0 01-.641-.266c-.17-.17-.266-.4006-.266-.6411v-6.3494c0-.2405.096-.4711.266-.6411.17-.1701.4-.2657.641-.266h2.383c.155-.0006.308.0388.443.1144s.249.1849.33.3171l.664 1.0803h4.646c.24.0002.471.0959.641.2659.17.1701.266.4007.266.6411v4.8377c0 .2405-.096.4711-.266.6411-.17.1701-.401.2657-.641.266z" fill="#6C63FF"/>
      </g>
      <g id="text-placeholder" fill="#C4C4C4">
        <rect id="placeholder-short" x="166" y="86" width="30" height="5" rx="2.5" style="animation:shortdip 5s ease-in infinite alternate"/>
        <rect id="placeholder-1" x="166" y="61" width="100" height="5" rx="2.5" style="animation:dipper 5s ease-in infinite;animation-delay:0s"/>
        <rect id="placeholder-2" x="166" y="69" width="100" height="5" rx="2.5" style="animation:dipper 5s ease-in infinite;animation-delay:0s"/>
        <rect id="placeholder-3" x="166" y="77" width="100" height="5" rx="2.5" style="animation:dipper 5s ease-in infinite;animation-delay:0s"/>
      </g>
    </g>
  </g>
</svg>
