<svg width="60" height="62" viewBox="0 0 60 62" fill="none" xmlns="http://www.w3.org/2000/svg">
<g filter="url(#filter0_d)">
<g filter="url(#filter1_d)">
<ellipse cx="29.808" cy="31.2468" rx="24.5669" ry="24" transform="rotate(-0.57848 29.808 31.2468)" fill="#F44336"/>
</g>
<path d="M34.646 45.123C34.459 45.7941 33.8735 46.2776 33.1791 46.3343C32.0252 46.4285 31.1304 45.3443 31.4419 44.2292L38.7542 18.0501C38.9405 17.3833 39.5225 16.903 40.2126 16.8466C41.3596 16.753 42.2493 17.8303 41.9405 18.939L34.646 45.123Z" fill="#EDEDED"/>
<path d="M24.1954 33.1098C23.4054 33.2622 23.1096 34.2375 23.6819 34.803L29.4028 40.4567C29.6649 40.7157 29.7633 41.0978 29.659 41.4512L29.0856 43.3929C28.8707 44.1207 27.9552 44.3533 27.4189 43.8163L16.6443 33.026C16.3777 32.759 16.2841 32.3648 16.4021 32.0064L16.8342 30.6952C16.9562 30.3249 17.2823 30.0593 17.6696 30.0147L31.6387 28.4068C32.3639 28.3233 32.9312 29.0198 32.7028 29.7132L32.2689 31.0302C32.1554 31.3746 31.8645 31.6306 31.5085 31.6992L24.1954 33.1098Z" fill="#EDEDED"/>
<path d="M23.3829 32.5596C22.5929 32.712 22.2971 33.6873 22.8694 34.2528L28.5903 39.9065C28.8524 40.1655 28.9508 40.5476 28.8465 40.901L28.2731 42.8427C28.0582 43.5705 27.1427 43.803 26.6064 43.266L15.8318 32.4757C15.5652 32.2088 15.4716 31.8145 15.5896 31.4562L16.0217 30.145C16.1437 29.7747 16.4698 29.509 16.8571 29.4645L30.8262 27.8566C31.5514 27.7731 32.1187 28.4696 31.8903 29.1629L31.4564 30.48C31.3429 30.8244 31.052 31.0803 30.696 31.149L23.3829 32.5596Z" fill="white"/>
<path d="M34.2031 44.2031C34.0161 44.8742 33.4307 45.3577 32.7363 45.4144C31.5823 45.5086 30.6876 44.4244 30.999 43.3093L38.3114 17.1303C38.4977 16.4634 39.0796 15.9831 39.7698 15.9267C40.9168 15.8331 41.8065 16.9104 41.4976 18.0191L34.2031 44.2031Z" fill="white"/>
</g>
<defs>
<filter id="filter0_d" x="3" y="7" width="53.616" height="54.4936" filterUnits="userSpaceOnUse" color-interpolation-filters="sRGB">
<feFlood flood-opacity="0" result="BackgroundImageFix"/>
<feColorMatrix in="SourceAlpha" type="matrix" values="0 0 0 0 0 0 0 0 0 0 0 0 0 0 0 0 0 0 127 0"/>
<feOffset dy="4"/>
<feGaussianBlur stdDeviation="1"/>
<feColorMatrix type="matrix" values="0 0 0 0 0 0 0 0 0 0 0 0 0 0 0 0 0 0 0.25 0"/>
<feBlend mode="normal" in2="BackgroundImageFix" result="effect1_dropShadow"/>
<feBlend mode="normal" in="SourceGraphic" in2="effect1_dropShadow" result="shape"/>
</filter>
<filter id="filter1_d" x="0.241089" y="0.246735" width="59.1338" height="58.0002" filterUnits="userSpaceOnUse" color-interpolation-filters="sRGB">
<feFlood flood-opacity="0" result="BackgroundImageFix"/>
<feColorMatrix in="SourceAlpha" type="matrix" values="0 0 0 0 0 0 0 0 0 0 0 0 0 0 0 0 0 0 127 0"/>
<feOffset dy="-2"/>
<feGaussianBlur stdDeviation="2.5"/>
<feColorMatrix type="matrix" values="0 0 0 0 0 0 0 0 0 0 0 0 0 0 0 0 0 0 0.15 0"/>
<feBlend mode="normal" in2="BackgroundImageFix" result="effect1_dropShadow"/>
<feBlend mode="normal" in="SourceGraphic" in2="effect1_dropShadow" result="shape"/>
</filter>
</defs>
</svg>
