<svg width="48" height="47" viewBox="0 0 48 47" fill="none" xmlns="http://www.w3.org/2000/svg">
<ellipse cx="24" cy="23.4571" rx="23.7668" ry="23.2183" transform="rotate(-0.57848 24 23.4571)" fill="white"/>
<ellipse cx="24.0933" cy="23.2691" rx="21.5599" ry="21.0623" transform="rotate(-0.57848 24.0933 23.2691)" fill="url(#paint0_linear)"/>
<path d="M18.4785 25.9863C17.6886 26.1387 17.3928 27.114 17.965 27.6795L22.9161 32.5725C23.1782 32.8315 23.2766 33.2136 23.1723 33.567L22.7242 35.0845C22.5092 35.8123 21.5937 36.0449 21.0575 35.5079L11.5562 25.9927C11.2896 25.7257 11.1959 25.3315 11.314 24.9732L11.6613 23.919C11.7833 23.5487 12.1094 23.283 12.4968 23.2385L24.8066 21.8216C25.5318 21.7381 26.0991 22.4346 25.8707 23.1279L25.5504 24.1C25.437 24.4443 25.146 24.7003 24.7901 24.7689L18.4785 25.9863Z" fill="#C3C3C3"/>
<path d="M17.7494 25.4926C16.9595 25.645 16.6637 26.6203 17.2359 27.1858L22.1871 32.0787C22.4492 32.3377 22.5476 32.7199 22.4432 33.0732L21.9951 34.5907C21.7802 35.3186 20.8647 35.5511 20.3284 35.0141L10.8271 25.499C10.5605 25.232 10.4669 24.8378 10.5849 24.4794L10.9323 23.4252C11.0543 23.0549 11.3804 22.7893 11.7677 22.7447L24.0775 21.3278C24.8027 21.2443 25.3701 21.9409 25.1416 22.6342L24.8214 23.6062C24.7079 23.9506 24.417 24.2065 24.061 24.2752L17.7494 25.4926Z" fill="white"/>
<path d="M16.4907 25.7612C16.4994 25.7588 16.5084 25.7567 16.5175 25.7549L24.4596 24.223C24.5777 24.2002 24.6742 24.1153 24.7118 24.0011L25.4819 21.6638C25.5577 21.4338 25.3695 21.2028 25.1289 21.2304L11.9409 22.7484L16.4907 25.7612Z" fill="#D3D3D3" fill-opacity="0.7"/>
<path d="M21.9166 34.9234L16.9355 31.6251L21.1368 35.8325C21.3147 36.0107 21.6184 35.9335 21.6896 35.6921L21.9166 34.9234Z" fill="#D3D3D3" fill-opacity="0.7"/>
<path d="M26.6695 36.8028C26.5017 37.405 25.9764 37.8388 25.3533 37.8897V37.8897C24.3179 37.9742 23.515 37.0013 23.7945 36.0007L30.3559 12.5101C30.523 11.9117 31.0453 11.4808 31.6645 11.4302V11.4302C32.6938 11.3462 33.4921 12.3129 33.2149 13.3077L26.6695 36.8028Z" fill="#D3D3D3"/>
<path d="M26.2721 35.9773C26.1043 36.5795 25.579 37.0134 24.9559 37.0643V37.0643C23.9205 37.1488 23.1176 36.1759 23.3971 35.1753L29.9585 11.6847C30.1256 11.0863 30.6479 10.6553 31.2671 10.6048V10.6048C32.2964 10.5207 33.0947 11.4874 32.8175 12.4822L26.2721 35.9773Z" fill="white"/>
<path d="M24.0392 36.9157H23.55C23.6223 36.9356 23.6998 36.9434 23.7805 36.9368L24.0392 36.9157Z" fill="#D3D3D3" fill-opacity="0.7"/>
<path d="M30.4603 20.7577V19.6678H27.6767L30.123 10.9097C30.1977 10.6423 30.4311 10.4496 30.7079 10.427L32.4511 10.2847C32.9112 10.2471 33.268 10.6792 33.1441 11.1239L30.4603 20.7577Z" fill="#D3D3D3" fill-opacity="0.7"/>
<defs>
<linearGradient id="paint0_linear" x1="12.1295" y1="4.52192" x2="35.2932" y2="42.9021" gradientUnits="userSpaceOnUse">
<stop stop-color="#D32F2F"/>
<stop offset="1" stop-color="#071EC9" stop-opacity="0.93"/>
<stop offset="1" stop-color="#1E88E5" stop-opacity="0.93"/>
</linearGradient>
</defs>
</svg>
