<svg width="174" height="32" viewBox="0 0 87 16" fill="none" xmlns="http://www.w3.org/2000/svg">
	<path d="M0.136 12V0.799999H4.088C4.93067 0.799999 5.70933 0.943999 6.424 1.232C7.14933 1.50933 7.77333 1.89867 8.296 2.4C8.82933 2.89067 9.24533 3.48267 9.544 4.176C9.84267 4.86933 9.992 5.616 9.992 6.416C9.992 7.216 9.84267 7.95733 9.544 8.64C9.24533 9.32267 8.83467 9.91467 8.312 10.416C7.78933 10.9067 7.16533 11.296 6.44 11.584C5.71467 11.8613 4.93067 12 4.088 12H0.136ZM4.12 2.304H1.816V10.496H4.12C4.696 10.496 5.24 10.3947 5.752 10.192C6.264 9.97867 6.70133 9.69067 7.064 9.328C7.43733 8.95467 7.73067 8.52267 7.944 8.032C8.15733 7.53067 8.264 6.992 8.264 6.416C8.264 5.84 8.15733 5.30133 7.944 4.8C7.73067 4.288 7.43733 3.85067 7.064 3.488C6.70133 3.11467 6.264 2.82667 5.752 2.624C5.24 2.41067 4.696 2.304 4.12 2.304ZM14.9766 12V0.799999H23.2326V2.272H16.6566V5.632H20.9766V7.072H16.6566V10.528H23.2966V12H14.9766ZM31.8514 12L27.2754 0.799999H29.0834L32.8754 10.336L36.7314 0.799999H38.4594L33.8194 12H31.8514Z" fill="#D32F2F" />
	<path d="M43.2941 15.328V0.799999H44.7821V15.328H43.2941Z" fill="#333333" />
	<path d="M49.7092 10.144L50.7332 8.96C51.3412 9.54667 51.9599 9.98933 52.5892 10.288C53.2292 10.576 53.8959 10.72 54.5892 10.72C55.3892 10.72 56.0399 10.544 56.5412 10.192C57.0532 9.84 57.3092 9.392 57.3092 8.848C57.3092 8.35733 57.1332 7.97867 56.7812 7.712C56.4292 7.43467 55.8479 7.22667 55.0372 7.088L53.1652 6.784C52.1412 6.61333 51.3732 6.288 50.8612 5.808C50.3599 5.31733 50.1092 4.672 50.1092 3.872C50.1092 2.90133 50.4879 2.12267 51.2452 1.536C52.0026 0.949333 52.9999 0.655999 54.2372 0.655999C55.0372 0.655999 55.8319 0.789333 56.6212 1.056C57.4106 1.312 58.1199 1.68533 58.7492 2.176L57.8212 3.456C57.2132 2.99733 56.6052 2.656 55.9972 2.432C55.3892 2.19733 54.7759 2.08 54.1572 2.08C53.4319 2.08 52.8452 2.23467 52.3972 2.544C51.9492 2.85333 51.7252 3.25333 51.7252 3.744C51.7252 4.20267 51.8799 4.55467 52.1892 4.8C52.4986 5.03467 53.0106 5.21067 53.7252 5.328L55.5332 5.616C56.7066 5.808 57.5706 6.16 58.1252 6.672C58.6906 7.17333 58.9732 7.856 58.9732 8.72C58.9732 9.232 58.8666 9.70133 58.6532 10.128C58.4399 10.5547 58.1359 10.9173 57.7413 11.216C57.3572 11.5147 56.8879 11.7493 56.3332 11.92C55.7786 12.08 55.1706 12.16 54.5092 12.16C53.6132 12.16 52.7492 11.984 51.9172 11.632C51.0852 11.28 50.3492 10.784 49.7092 10.144ZM62.878 10.144L63.902 8.96C64.51 9.54667 65.1287 9.98933 65.758 10.288C66.398 10.576 67.0647 10.72 67.758 10.72C68.558 10.72 69.2087 10.544 69.71 10.192C70.222 9.84 70.478 9.392 70.478 8.848C70.478 8.35733 70.302 7.97867 69.95 7.712C69.598 7.43467 69.0167 7.22667 68.206 7.088L66.334 6.784C65.31 6.61333 64.542 6.288 64.03 5.808C63.5287 5.31733 63.278 4.672 63.278 3.872C63.278 2.90133 63.6567 2.12267 64.414 1.536C65.1713 0.949333 66.1687 0.655999 67.406 0.655999C68.206 0.655999 69.0007 0.789333 69.79 1.056C70.5793 1.312 71.2887 1.68533 71.918 2.176L70.99 3.456C70.382 2.99733 69.774 2.656 69.166 2.432C68.558 2.19733 67.9447 2.08 67.326 2.08C66.6007 2.08 66.014 2.23467 65.566 2.544C65.118 2.85333 64.894 3.25333 64.894 3.744C64.894 4.20267 65.0487 4.55467 65.358 4.8C65.6673 5.03467 66.1793 5.21067 66.894 5.328L68.702 5.616C69.8753 5.808 70.7393 6.16 71.294 6.672C71.8593 7.17333 72.142 7.856 72.142 8.72C72.142 9.232 72.0353 9.70133 71.822 10.128C71.6087 10.5547 71.3047 10.9173 70.91 11.216C70.526 11.5147 70.0567 11.7493 69.502 11.92C68.9473 12.08 68.3393 12.16 67.678 12.16C66.782 12.16 65.918 11.984 65.086 11.632C64.254 11.28 63.518 10.784 62.878 10.144ZM76.8985 12V0.799999H78.5785V5.6H84.5305V0.799999H86.2105V12H84.5305V7.12H78.5785V12H76.8985Z" fill="#303F9F" />
</svg>
