<svg width="24" height="24" viewBox="0 0 24 24" fill="none" xmlns="http://www.w3.org/2000/svg">
<ellipse cx="12" cy="11.7286" rx="11.8834" ry="11.6092" transform="rotate(-0.57848 12 11.7286)" fill="white"/>
<ellipse cx="12.0467" cy="11.6345" rx="10.7799" ry="10.5312" transform="rotate(-0.57848 12.0467 11.6345)" fill="url(#paint0_linear)"/>
<path d="M8.77348 13.083C8.576 13.1211 8.50205 13.365 8.6451 13.5063L11.5645 16.3914C11.63 16.4562 11.6546 16.5517 11.6285 16.64L11.2429 17.946C11.1892 18.1279 10.9603 18.1861 10.8262 18.0518L5.66945 12.8875C5.60281 12.8208 5.57939 12.7222 5.60891 12.6327L5.88073 11.8077C5.91123 11.7151 5.99275 11.6487 6.08959 11.6375L12.7917 10.8661C12.973 10.8452 13.1148 11.0194 13.0577 11.1927L12.7293 12.1894C12.7009 12.2755 12.6282 12.3395 12.5392 12.3567L8.77348 13.083Z" fill="#C3C3C3"/>
<path d="M8.40892 12.8361C8.21144 12.8742 8.13749 13.1181 8.28054 13.2594L11.1999 16.1445C11.2655 16.2093 11.2901 16.3048 11.264 16.3931L10.8783 17.6991C10.8246 17.8811 10.5957 17.9392 10.4617 17.8049L5.30488 12.6407C5.23824 12.5739 5.21483 12.4754 5.24435 12.3858L5.51616 11.5608C5.54667 11.4682 5.62819 11.4018 5.72502 11.3906L12.4271 10.6192C12.6084 10.5983 12.7503 10.7725 12.6931 10.9458L12.3647 11.9425C12.3364 12.0286 12.2636 12.0926 12.1746 12.1098L8.40892 12.8361Z" fill="white"/>
<path d="M8.24532 12.8806C8.24968 12.8794 8.25415 12.8783 8.25871 12.8774L12.2298 12.1115C12.2888 12.1001 12.3371 12.0576 12.3559 12.0005L12.7409 10.8319C12.7788 10.7169 12.6847 10.6014 12.5644 10.6152L5.9704 11.3742L8.24532 12.8806Z" fill="#D3D3D3" fill-opacity="0.7"/>
<path d="M10.9583 17.4617L8.46773 15.8126L10.5684 17.9163C10.6573 18.0053 10.8091 17.9668 10.8448 17.846L10.9583 17.4617Z" fill="#D3D3D3" fill-opacity="0.7"/>
<path d="M13.2419 18.7346C13.2138 18.8355 13.1258 18.9082 13.0214 18.9167L11.9667 19.0028C11.7933 19.017 11.6588 18.854 11.7056 18.6864L15.2701 5.92491C15.2983 5.82411 15.3863 5.75151 15.4906 5.743L16.5357 5.65766C16.7091 5.64351 16.8435 5.80635 16.7969 5.97393L13.2419 18.7346Z" fill="#C3C3C3"/>
<path d="M13.0432 18.3219C13.0151 18.4228 12.9271 18.4955 12.8227 18.504L11.768 18.5901C11.5946 18.6043 11.4601 18.4413 11.5069 18.2737L15.0715 5.51219C15.0996 5.41139 15.1876 5.33879 15.2919 5.33028L16.337 5.24494C16.5104 5.23079 16.6449 5.39363 16.5982 5.56121L13.0432 18.3219Z" fill="white"/>
<path d="M12.0196 18.4579H11.775C11.8112 18.4678 11.8499 18.4717 11.8903 18.4684L12.0196 18.4579Z" fill="#D3D3D3"/>
<path d="M15.2302 10.3788V9.83391H13.8384L15.0615 5.45487C15.0989 5.32113 15.2156 5.22481 15.354 5.21351L16.2256 5.14235C16.4556 5.12356 16.634 5.33962 16.5721 5.56195L15.2302 10.3788Z" fill="#D3D3D3"/>
<defs>
<linearGradient id="paint0_linear" x1="6.06479" y1="2.26096" x2="17.6466" y2="21.4511" gradientUnits="userSpaceOnUse">
<stop stop-color="#F44336"/>
<stop offset="1" stop-color="#071EC9" stop-opacity="0.93"/>
</linearGradient>
</defs>
</svg>
