<svg width="36" height="36" viewBox="0 0 36 36" fill="none" xmlns="http://www.w3.org/2000/svg">
<ellipse cx="18" cy="17.5928" rx="17.8251" ry="17.4137" transform="rotate(-0.57848 18 17.5928)" fill="white"/>
<ellipse cx="18.07" cy="17.4518" rx="16.1699" ry="15.7968" transform="rotate(-0.57848 18.07 17.4518)" fill="url(#paint0_linear)"/>
<path d="M14.3247 19.3999C13.5348 19.5523 13.239 20.5276 13.8112 21.0931L17.0807 24.3242C17.3428 24.5832 17.4412 24.9653 17.3369 25.3187L17.1624 25.9096C16.9474 26.6375 16.0319 26.87 15.4957 26.333L8.7758 19.6033C8.50923 19.3364 8.41558 18.9421 8.53364 18.5838L8.69599 18.0911C8.81799 17.7208 9.14409 17.4551 9.53142 17.4106L18.2166 16.4109C18.9418 16.3274 19.5091 17.0239 19.2807 17.7172L19.2088 17.9355C19.0953 18.2799 18.8044 18.5358 18.4484 18.6045L14.3247 19.3999Z" fill="#C3C3C3"/>
<path d="M13.7779 19.0296C12.9879 19.182 12.6921 20.1573 13.2643 20.7228L16.5339 23.9539C16.796 24.2129 16.8944 24.595 16.7901 24.9484L16.6156 25.5393C16.4006 26.2672 15.4851 26.4997 14.9489 25.9627L8.22898 19.233C7.96241 18.9661 7.86877 18.5718 7.98683 18.2135L8.14917 17.7208C8.27118 17.3505 8.59728 17.0848 8.9846 17.0403L17.6698 16.0406C18.395 15.9571 18.9623 16.6536 18.7339 17.3469L18.662 17.5652C18.5485 17.9096 18.2576 18.1655 17.9016 18.2342L13.7779 19.0296Z" fill="white"/>
<path d="M12.368 19.3209C12.3746 19.3191 12.3813 19.3175 12.3881 19.3162L18.3447 18.1672C18.4332 18.1502 18.5056 18.0865 18.5338 18.0008L19.1114 16.2478C19.1682 16.0753 19.0271 15.9021 18.8467 15.9228L8.95563 17.0613L12.368 19.3209Z" fill="#D3D3D3" fill-opacity="0.7"/>
<path d="M16.4375 26.1926L12.7016 23.7189L15.8526 26.8744C15.986 27.008 16.2137 26.9502 16.2672 26.7691L16.4375 26.1926Z" fill="#D3D3D3" fill-opacity="0.7"/>
<path d="M20.0021 27.6021C19.8763 28.0538 19.4823 28.3791 19.015 28.4173V28.4173C18.2384 28.4807 17.6362 27.751 17.8458 27.0006L22.7669 9.38261C22.8923 8.9338 23.2839 8.61059 23.7484 8.57267V8.57267C24.5203 8.50964 25.119 9.23466 24.9112 9.98076L20.0021 27.6021Z" fill="#C3C3C3"/>
<path d="M19.7042 26.983C19.5783 27.4347 19.1843 27.7601 18.717 27.7982V27.7982C17.9404 27.8616 17.3383 27.1319 17.5479 26.3815L22.4689 8.76353C22.5943 8.31472 22.986 7.99151 23.4504 7.95359V7.95359C24.2223 7.89056 24.8211 8.61558 24.6132 9.36168L19.7042 26.983Z" fill="white"/>
<path d="M18.0294 27.6868H17.6625C17.7167 27.7017 17.7749 27.7076 17.8354 27.7026L18.0294 27.6868Z" fill="#D3D3D3"/>
<path d="M22.8452 15.5682V14.7508H20.7575L22.5922 8.18229C22.6483 7.98168 22.8233 7.8372 23.0309 7.82025L24.3383 7.7135C24.6834 7.68533 24.951 8.00941 24.8581 8.34291L22.8452 15.5682Z" fill="#D3D3D3"/>
<defs>
<linearGradient id="paint0_linear" x1="9.09716" y1="3.39143" x2="26.4699" y2="32.1766" gradientUnits="userSpaceOnUse">
<stop stop-color="#F44336"/>
<stop offset="1" stop-color="#071EC9" stop-opacity="0.93"/>
</linearGradient>
</defs>
</svg>
