<svg width="128" height="126" viewBox="0 0 128 126" fill="none" xmlns="http://www.w3.org/2000/svg">
<ellipse cx="64" cy="62.5523" rx="63.3781" ry="61.9155" transform="rotate(-0.57848 64 62.5523)" fill="white"/>
<ellipse cx="64.2487" cy="62.0509" rx="57.493" ry="56.1662" transform="rotate(-0.57848 64.2487 62.0509)" fill="url(#paint0_linear)"/>
<path d="M46.1707 69.8959C45.3807 70.0483 45.0849 71.0236 45.6571 71.5891L61.8191 87.561C62.0811 87.8199 62.1796 88.2021 62.0752 88.5554L59.803 96.2501C59.588 96.9779 58.6725 97.2105 58.1363 96.6735L30.092 68.5884C29.8254 68.3214 29.7318 67.9272 29.8498 67.5689L31.4304 62.7716C31.5524 62.4013 31.8785 62.1357 32.2658 62.0911L68.7399 57.8928C69.4651 57.8093 70.0325 58.5058 69.804 59.1992L67.8282 65.1961C67.7147 65.5405 67.4238 65.7964 67.0678 65.8651L46.1707 69.8959Z" fill="#C3C3C3"/>
<path d="M44.2265 68.5793C43.4366 68.7316 43.1408 69.707 43.713 70.2724L59.8749 86.2443C60.137 86.5033 60.2354 86.8855 60.131 87.2388L57.8588 94.9335C57.6439 95.6613 56.7284 95.8939 56.1921 95.3569L28.1478 67.2718C27.8813 67.0048 27.7876 66.6106 27.9057 66.2523L29.4863 61.455C29.6083 61.0847 29.9344 60.8191 30.3217 60.7745L66.7958 56.5762C67.521 56.4927 68.0883 57.1892 67.8599 57.8826L65.884 63.8795C65.7706 64.2238 65.4796 64.4798 65.1237 64.5485L44.2265 68.5793Z" fill="white"/>
<path d="M43.9752 68.6965C43.9985 68.69 44.0223 68.6845 44.0466 68.6798L65.2256 64.5946C65.5404 64.5339 65.7978 64.3075 65.8981 64.0029L67.9517 57.77C68.1538 57.1568 67.6519 56.5407 67.0105 56.6145L31.8423 60.6625L43.9752 68.6965Z" fill="#D3D3D3" fill-opacity="0.7"/>
<path d="M58.4443 93.1292L45.1614 84.3337L56.3649 95.5535C56.8392 96.0285 57.6489 95.8228 57.839 95.179L58.4443 93.1292Z" fill="#D3D3D3" fill-opacity="0.7"/>
<path d="M70.7483 99.4702C70.5235 100.277 69.8195 100.859 68.9845 100.927L64.7764 101.27C63.3888 101.384 62.3129 100.08 62.6874 98.739L81.3159 32.0468C81.5412 31.2403 82.2449 30.6596 83.0795 30.5914L87.2373 30.2519C88.6244 30.1387 89.7002 31.4414 89.3267 32.782L70.7483 99.4702Z" fill="#C3C3C3"/>
<path d="M69.6887 97.2691C69.4639 98.0761 68.7598 98.6575 67.9248 98.7257L63.7168 99.0693C62.3292 99.1826 61.2532 97.8788 61.6278 96.5379L80.2563 29.8456C80.4816 29.0392 81.1853 28.4585 82.0198 28.3903L86.1777 28.0508C87.5648 27.9376 88.6406 29.2403 88.2671 30.5809L69.6887 97.2691Z" fill="white"/>
<path d="M64.1044 98.4419H62.8C62.9928 98.4948 63.1995 98.5158 63.4147 98.4982L64.1044 98.4419Z" fill="#D3D3D3"/>
<path d="M81.2275 55.3538V52.4475H73.8045L80.328 29.0926C80.5272 28.3793 81.1497 27.8656 81.8878 27.8054L86.5363 27.4258C87.7632 27.3257 88.7148 28.4779 88.3844 29.6637L81.2275 55.3538Z" fill="#D3D3D3"/>
<defs>
<linearGradient id="paint0_linear" x1="32.3454" y1="12.0585" x2="94.1152" y2="114.406" gradientUnits="userSpaceOnUse">
<stop stop-color="#F44336"/>
<stop offset="1" stop-color="#071EC9" stop-opacity="0.93"/>
</linearGradient>
</defs>
</svg>
