<svg width="16" height="16" viewBox="0 0 16 16" fill="none" xmlns="http://www.w3.org/2000/svg">
<ellipse cx="8" cy="7.81904" rx="7.92226" ry="7.73944" transform="rotate(-0.57848 8 7.81904)" fill="white"/>
<ellipse cx="8.03113" cy="7.75637" rx="7.18663" ry="7.02078" transform="rotate(-0.57848 8.03113 7.75637)" fill="url(#paint0_linear)"/>
<path d="M6.00425 8.69204C5.80677 8.73014 5.73282 8.97397 5.87587 9.11534L7.6742 10.8925C7.73972 10.9573 7.76433 11.0528 7.73824 11.1411L7.535 11.8294C7.48127 12.0113 7.25239 12.0695 7.11833 11.9352L3.81585 8.62794C3.74921 8.5612 3.7258 8.46264 3.75531 8.37306L3.90381 7.92236C3.93431 7.82978 4.01583 7.76337 4.11267 7.75223L8.39833 7.25893C8.57963 7.23806 8.72147 7.41219 8.66436 7.58553L8.50152 8.07978C8.47315 8.16586 8.40042 8.22985 8.31142 8.24702L6.00425 8.69204Z" fill="#C3C3C3"/>
<path d="M5.76121 8.52746C5.56373 8.56555 5.48978 8.80939 5.63283 8.95076L7.43116 10.7279C7.49668 10.7927 7.52129 10.8882 7.4952 10.9766L7.29196 11.6648C7.23823 11.8468 7.00935 11.9049 6.87529 11.7706L3.57281 8.46336C3.50617 8.39662 3.48276 8.29806 3.51227 8.20848L3.66077 7.75778C3.69127 7.6652 3.77279 7.59879 3.86962 7.58765L8.15529 7.09435C8.33659 7.07348 8.47843 7.24761 8.42132 7.42094L8.25848 7.9152C8.23011 8.00128 8.15738 8.06527 8.06838 8.08244L5.76121 8.52746Z" fill="white"/>
<path d="M5.4969 8.58708C5.49981 8.58627 5.50279 8.58558 5.50583 8.58499L8.1532 8.07435C8.19255 8.06676 8.22472 8.03845 8.23727 8.00038L8.49396 7.22127C8.51922 7.14461 8.45649 7.06761 8.37631 7.07683L3.98029 7.58283L5.4969 8.58708Z" fill="#D3D3D3" fill-opacity="0.7"/>
<path d="M7.30554 11.6412L5.64517 10.5417L7.04561 11.9442C7.10489 12.0036 7.20612 11.9779 7.22988 11.8974L7.30554 11.6412Z" fill="#D3D3D3" fill-opacity="0.7"/>
<path d="M8.84354 12.4338C8.81544 12.5347 8.72743 12.6073 8.62306 12.6158L8.09706 12.6588C7.9236 12.673 7.78911 12.51 7.83593 12.3424L10.1645 4.00584C10.1926 3.90504 10.2806 3.83245 10.3849 3.82393L10.9047 3.78149C11.078 3.76734 11.2125 3.93018 11.1658 4.09776L8.84354 12.4338Z" fill="#C3C3C3"/>
<path d="M8.71109 12.1587C8.68299 12.2595 8.59499 12.3322 8.49061 12.3407L7.96461 12.3837C7.79116 12.3978 7.65666 12.2349 7.70348 12.0673L10.032 3.73073C10.0602 3.62993 10.1482 3.55733 10.2525 3.54881L10.7722 3.50638C10.9456 3.49222 11.0801 3.65506 11.0334 3.82264L8.71109 12.1587Z" fill="white"/>
<path d="M8.01303 12.3053H7.84998C7.87408 12.3119 7.89992 12.3145 7.92682 12.3123L8.01303 12.3053Z" fill="#D3D3D3"/>
<path d="M10.1534 6.91925V6.55596H9.22554L10.041 3.6366C10.0659 3.54744 10.1437 3.48323 10.236 3.4757L10.817 3.42825C10.9704 3.41573 11.0893 3.55977 11.048 3.70799L10.1534 6.91925Z" fill="#D3D3D3"/>
<defs>
<linearGradient id="paint0_linear" x1="4.04322" y1="1.50732" x2="11.7645" y2="14.3007" gradientUnits="userSpaceOnUse">
<stop stop-color="#F44336"/>
<stop offset="1" stop-color="#071EC9" stop-opacity="0.93"/>
</linearGradient>
</defs>
</svg>
