<svg width="145" height="142" viewBox="0 0 145 142" fill="none" xmlns="http://www.w3.org/2000/svg">
<ellipse cx="72.3566" cy="70.7199" rx="71.6535" ry="70" transform="rotate(-0.57848 72.3566 70.7199)" fill="white"/>
<ellipse cx="72.6378" cy="70.153" rx="65" ry="63.5" transform="rotate(-0.57848 72.6378 70.153)" fill="url(#paint0_linear)"/>
<path d="M51.956 79.0693C51.1661 79.2217 50.8703 80.197 51.4425 80.7625L69.9465 99.049C70.2086 99.308 70.307 99.6901 70.2027 100.043L67.5493 109.029C67.3344 109.756 66.4189 109.989 65.8827 109.452L33.9644 77.4874C33.6979 77.2204 33.6042 76.8261 33.7223 76.4678L35.5605 70.8886C35.6825 70.5183 36.0086 70.2527 36.3959 70.2081L77.9183 65.4287C78.6435 65.3452 79.2109 66.0417 78.9824 66.7351L76.6607 73.7818C76.5473 74.1262 76.2563 74.3821 75.9003 74.4508L51.956 79.0693Z" fill="#C3C3C3"/>
<path d="M49.758 77.5808C48.968 77.7331 48.6722 78.7085 49.2444 79.274L67.7485 97.5604C68.0105 97.8194 68.1089 98.2015 68.0046 98.5549L65.3513 107.54C65.1363 108.268 64.2208 108.5 63.6846 107.963L31.7664 75.9988C31.4998 75.7318 31.4062 75.3376 31.5242 74.9793L33.3624 69.4C33.4844 69.0297 33.8105 68.7641 34.1979 68.7195L75.7203 63.9401C76.4455 63.8567 77.0128 64.5532 76.7844 65.2465L74.4627 72.2933C74.3492 72.6376 74.0583 72.8936 73.7023 72.9622L49.758 77.5808Z" fill="white"/>
<path d="M49.7171 77.6664C49.7434 77.6591 49.7704 77.6528 49.7979 77.6475L73.7422 73.0289C74.0982 72.9603 74.3891 72.7043 74.5026 72.36L76.8243 65.3132C77.0527 64.6199 76.4854 63.9234 75.7602 64.0069L36 68.5834L49.7171 77.6664Z" fill="#D3D3D3" fill-opacity="0.7"/>
<path d="M66.0756 105.289L51.0582 95.3454L63.7245 108.03C64.2608 108.567 65.1763 108.335 65.3912 107.607L66.0756 105.289Z" fill="#D3D3D3" fill-opacity="0.7"/>
<path d="M79.9372 112.634C79.7124 113.441 79.0083 114.022 78.1733 114.09L72.8608 114.524C71.4732 114.637 70.3972 113.334 70.7718 111.993L91.9825 36.056C92.2077 35.2496 92.9115 34.6688 93.746 34.6007L99.0014 34.1716C100.388 34.0583 101.464 35.3611 101.091 36.7017L79.9372 112.634Z" fill="#C3C3C3"/>
<path d="M78.7392 110.145C78.5144 110.952 77.8103 111.534 76.9753 111.602L71.6628 112.035C70.2752 112.149 69.1992 110.845 69.5738 109.504L90.7845 33.5675C91.0097 32.761 91.7135 32.1803 92.548 32.1121L97.8034 31.683C99.1905 31.5698 100.266 32.8725 99.8928 34.2131L78.7392 110.145Z" fill="white"/>
<path d="M72.4747 111.296H70.9999C71.2179 111.356 71.4516 111.379 71.6949 111.359L72.4747 111.296Z" fill="#D3D3D3"/>
<path d="M91.8336 62.5815V59.2957H83.4413L90.8166 32.8913C91.0418 32.0849 91.7456 31.5042 92.5801 31.436L97.8356 31.0069C99.2226 30.8937 100.298 32.1964 99.925 33.537L91.8336 62.5815Z" fill="#D3D3D3"/>
<defs>
<linearGradient id="paint0_linear" x1="36.5688" y1="13.633" x2="106.404" y2="129.344" gradientUnits="userSpaceOnUse">
<stop stop-color="#F44336"/>
<stop offset="1" stop-color="#071EC9" stop-opacity="0.93"/>
</linearGradient>
</defs>
</svg>
